<?xml version="1.0" encoding="UTF-8" standalone="no"?>
<svg
   width="146.79303"
   height="129.98967"
   version="1.1"
   viewBox="0 0 38.848546 34.401563"
   id="svg847"
   xmlns="http://www.w3.org/2000/svg"
   xmlns:svg="http://www.w3.org/2000/svg"
   xmlns:rdf="http://www.w3.org/1999/02/22-rdf-syntax-ns#"
   xmlns:cc="http://creativecommons.org/ns#"
   xmlns:dc="http://purl.org/dc/elements/1.1/">
  <metadata
     id="metadata853">
    <rdf:RDF>
      <cc:Work
         rdf:about="">
        <dc:format>image/svg+xml</dc:format>
        <dc:type
           rdf:resource="http://purl.org/dc/dcmitype/StillImage" />
        <dc:title />
      </cc:Work>
    </rdf:RDF>
  </metadata>
  <defs
     id="defs851">
    <linearGradient
       id="linearGradient7231">
      <stop
         style="stop-color:#b3b3b3;stop-opacity:1;"
         offset="0"
         id="stop7229" />
    </linearGradient>
  </defs>
  <g
     id="marisa"
     transform="translate(-52.496187,-15.722051)">
    <path
       id="path1650"
       d="m 63.65887,25.084004 c 2.880043,-4.039381 4.696834,-8.28295 9.168301,-9.270064 2.915293,-0.674343 10.589056,2.534544 11.460375,4.025161 0.62002,0.952125 -3.547199,0.209958 -5.971452,-0.06098 1.55148,2.129299 3.293596,4.087283 4.161933,6.830573 l 8.866708,2.378508 c -3.14976,10.498782 -28.494251,7.683981 -31.425557,5.488857 -7.862168,-4.241009 -8.869955,-7.227191 -5.850826,-7.7454 z"
       style="fill:#2b2e3a;fill-opacity:1;fill-rule:evenodd;stroke:none;stroke-width:0.222255px;stroke-linecap:butt;stroke-linejoin:miter;stroke-opacity:1" />
    <path
       id="path1659"
       d="m 63.036666,32.541553 c -2.202345,-1.171 -4.134007,-2.461383 -4.777515,-3.564647 2.34522,-0.793762 1.629284,-0.468957 3.602302,-0.704418 l 9.940224,-1.610866 15.008561,3.45747 h 0.864368 c -5.262536,4.528354 -9.949391,3.181234 -15.401456,4.0861 z"
       style="fill:#e0e0e0;fill-opacity:1;fill-rule:evenodd;stroke:none;stroke-width:0.222255px;stroke-linecap:butt;stroke-linejoin:miter;stroke-opacity:1" />
    <path
       d="m 86.105117,49.658573 c 1.440104,-4.99013 -0.407312,-6.13545 0.133371,-10.52073 0.565109,-4.58475 -0.882306,-8.32883 -3.973304,-10.93841 -5.030183,-4.25046 -13.056881,-4.71973 -18.743959,-1.09512 -4.307597,2.74455 -5.578562,7.2255 -5.372452,12.03353 0.330258,7.70411 -0.746977,5.5735 -0.49924,10.86526 0.01002,0.21433 1.943563,-2.5947 14.165034,-3.29634 12.102385,0.1915 14.188046,3.30699 14.29055,2.95181 z"
       style="fill:#e8c462;fill-opacity:1;stroke-width:1;paint-order:normal"
       id="path944" />
    <path
       d="m 80.238389,39.685443 c -0.170612,1.72322 -0.259382,4.8952 -1.369128,6.137 -1.401972,1.57025 -4.337747,3.03039 -6.519441,2.95121 -3.063104,-0.11109 -5.966032,-1.25048 -6.942374,-2.86932 -0.67444,-1.11852 -1.435717,-4.13348 -1.497806,-5.88505 -0.06614,-1.86719 0.413617,-3.80458 0.884556,-5.05268 0.912002,-2.4161 4.234262,-4.9312 7.891718,-4.8727 3.657006,0.0564 5.732069,1.93153 6.631923,3.9463 0.958795,1.66383 1.037983,4.00256 0.923703,5.64209 z"
       style="fill:#fbdccd;fill-opacity:1;stroke-width:1;paint-order:normal"
       id="path946" />
    <g
       transform="translate(12.239863,11.281695)"
       id="g2046">
      <path
         style="fill:#be6d35;fill-opacity:1;stroke-width:1;paint-order:normal"
         d="m 55.211388,28.281107 v 2.30075 c 0,0.57329 0.387752,1.03467 0.869322,1.03467 0.481569,0 0.869323,-0.46138 0.869323,-1.03467 v -2.30075 z"
         id="path948" />
      <rect
         style="opacity:1;fill:#3c281f;fill-opacity:1;fill-rule:nonzero;stroke:none;stroke-width:1.58789;stroke-linecap:round;stroke-linejoin:bevel;stroke-miterlimit:4;stroke-dasharray:none;stroke-opacity:1;paint-order:normal"
         id="rect952"
         width="4.117403"
         height="0.98256218"
         x="53.614243"
         y="27.536657"
         ry="0.49128109" />
      <path
         id="path954"
         d="m 63.66497,28.230857 v 2.30075 c 0,0.57329 0.387753,1.03467 0.869322,1.03467 0.481569,0 0.869322,-0.46137 0.869322,-1.03467 v -2.30075 z"
         style="fill:#be6d35;fill-opacity:1;stroke-width:1;paint-order:normal" />
      <rect
         ry="0.49128109"
         y="27.486425"
         x="62.067825"
         height="0.98256218"
         width="4.117403"
         id="rect956"
         style="opacity:1;fill:#3c281f;fill-opacity:1;fill-rule:nonzero;stroke:none;stroke-width:1.58789;stroke-linecap:round;stroke-linejoin:bevel;stroke-miterlimit:4;stroke-dasharray:none;stroke-opacity:1;paint-order:normal" />
    </g>
    <path
       id="path962"
       style="fill:#e8c462;fill-opacity:1;stroke-width:1;paint-order:normal"
       d="m 64.584986,41.404361 c -6.738782,-1.95627 -3.873802,-8.60842 0.845474,-12.94943 3.646106,-3.69389 9.465767,-4.10589 13.587383,-0.95168 4.646582,3.55595 6.821086,8.19155 1.731633,12.81641 -2.35364,-1.13648 -3.631926,-1.9262 -5.985566,-5.05256 -0.996836,1.4428 -1.085864,3.24222 -1.054567,5.08891 -0.927088,0.12721 -4.620568,-1.98217 -3.851972,-4.97093 -3.261841,0.84907 -4.042811,3.40601 -5.272385,6.01928 z" />
    <g
       transform="translate(11.961692,12.340289)"
       id="g2051">
      <path
         style="opacity:1;fill:#e8c462;fill-opacity:1;fill-rule:nonzero;stroke:none;stroke-width:2.64648;stroke-linecap:round;stroke-linejoin:round;stroke-miterlimit:4;stroke-dasharray:none;stroke-opacity:1;paint-order:normal"
         d="m 70.971853,25.963584 v 5.518582 c -0.207326,0.545124 -0.456147,1.074441 -1.571516,1.273644 0.863376,0.134353 1.277002,0.649264 1.571516,1.264962 0,0 0.418392,2.821546 -1.786567,2.852802 -2.116241,-0.08689 -1.786566,-2.852802 -1.786566,-2.852802 0.222995,-0.717795 0.608941,-0.97409 1.47232,-1.264962 -0.852602,-0.315031 -0.944316,-0.335786 -1.47232,-1.207475 v -5.584751 z"
         id="rect1624" />
      <path
         id="path960"
         d="m 60.184542,14.421324 c -6.862384,0.004 -12.504567,5.41136 -12.800119,12.26737 6e-5,4.9e-4 -6.1e-5,9.2e-4 0,0.002 -0.281194,4.61582 1.252083,10.66889 4.432426,11.09263 0.03074,-0.0406 -0.560515,-0.58225 -0.559737,-2.4441 0.704678,1.06213 2.339829,0.88925 2.496107,0.81111 -2.008491,-1.64715 -2.686678,-5.82687 -2.688529,-8.90884 -2.37e-4,-5.03693 4.082924,-9.12031 9.119859,-9.12033 5.036934,2e-5 9.120095,4.0834 9.119859,9.12033 h 3.699743 c 6.3e-5,-7.0801 -5.739504,-12.81966 -12.819602,-12.81961 z"
         style="fill:#e8c462;fill-opacity:1;stroke:none;stroke-width:1.32324;stroke-linecap:round;stroke-linejoin:miter;stroke-miterlimit:4;stroke-dasharray:none;stroke-opacity:1;paint-order:stroke fill markers" />
      <path
         style="opacity:1;fill:#82d936;fill-opacity:1;fill-rule:nonzero;stroke:none;stroke-width:0.793945;stroke-linecap:square;stroke-linejoin:miter;stroke-miterlimit:4;stroke-dasharray:none;stroke-opacity:1;paint-order:stroke fill markers"
         d="m 67.167939,31.661058 a 3.4795596,3.4795596 0 0 0 -0.393257,0.02587 3.4795596,3.4795596 0 0 0 -0.180343,1.096556 3.4795596,3.4795596 0 0 0 0.181629,1.095838 3.4795596,3.4795596 0 0 0 0.391971,0.02665 3.4795596,3.4795596 0 0 0 0.05542,-0.003 3.4795596,3.4795596 0 0 0 2.082048,-0.740655 3.4795596,3.4795596 0 0 0 2.085259,0.7418 3.4795596,3.4795596 0 0 0 0.05357,0.002 3.4795596,3.4795596 0 0 0 0.392896,-0.02492 3.4795596,3.4795596 0 0 0 0.180697,-1.097554 3.4795596,3.4795596 0 0 0 -0.182341,-1.097912 3.4795596,3.4795596 0 0 0 -0.391252,-0.02449 3.4795596,3.4795596 0 0 0 -0.0555,0.003 3.4795596,3.4795596 0 0 0 -2.081976,0.740654 3.4795596,3.4795596 0 0 0 -2.085403,-0.741797 3.4795596,3.4795596 0 0 0 -0.05342,-0.002 z"
         id="path1628" />
    </g>
    <path
       id="path1652"
       d="m 72.827213,15.813998 c -4.395817,1.303732 -6.560046,5.583043 -9.168434,9.270012 l -9.794394,1.768486 c -0.796104,0.40166 -0.62324,3.24492 12.197876,2.368176 12.821116,-0.876746 12.166781,2.012753 19.189936,2.827025 3.00921,0.04165 4.021766,0.236529 6.092467,-3.060341 l -8.86674,-2.378819 -4.16163,-6.830421 C 78.6187,17.82965 76.053938,16.724485 72.827213,15.813998 Z"
       style="fill:#2b2e3a;fill-opacity:1;fill-rule:evenodd;stroke:none;stroke-width:0.222255px;stroke-linecap:butt;stroke-linejoin:miter;stroke-opacity:1" />
    <path
       id="path1661"
       d="m 63.658973,25.084162 c 0.423702,-1.045199 1.124004,-1.831437 1.582471,-2.454447 5.269497,-0.435348 10.985228,-0.74513 16.110558,1.405207 0.725149,0.849843 0.764877,1.060784 1.126025,2.573773 -5.403002,-2.161326 -11.944933,-2.158333 -18.819054,-1.524533 z"
       style="fill:#e0e0e0;fill-opacity:1;fill-rule:evenodd;stroke:none;stroke-width:0.222255px;stroke-linecap:butt;stroke-linejoin:miter;stroke-opacity:1" />
    <path
       id="path1663"
       d="m 77.060816,21.665967 a 6.9418787,6.9418787 0 0 0 -0.777222,-0.118836 6.9418784,6.9418784 0 0 0 -0.823132,2.058597 6.9418784,6.9418784 0 0 0 -0.117672,2.212952 6.9418787,6.9418787 0 0 0 0.752129,0.220551 6.9418787,6.9418787 0 0 0 0.109257,0.01802 6.9418787,6.9418787 0 0 0 4.374704,-0.547035 6.9418787,6.9418787 0 0 0 3.74312,2.342307 6.9418787,6.9418787 0 0 0 0.103557,0.02666 6.9418787,6.9418787 0 0 0 0.776127,0.120486 6.9418784,6.9418784 0 0 0 0.824259,-2.060393 6.9418784,6.9418784 0 0 0 0.117172,-2.217292 6.9418787,6.9418787 0 0 0 -0.75166,-0.21607 6.9418787,6.9418787 0 0 0 -0.109397,-0.01806 6.9418787,6.9418787 0 0 0 -4.374565,0.547066 6.9418787,6.9418787 0 0 0 -3.743398,-2.342368 6.9418787,6.9418787 0 0 0 -0.103278,-0.02659 z"
       style="opacity:1;fill:#e0e0e0;fill-opacity:1;fill-rule:nonzero;stroke:none;stroke-width:0.666764;stroke-linecap:square;stroke-linejoin:miter;stroke-miterlimit:4;stroke-dasharray:none;stroke-opacity:1;paint-order:stroke fill markers" />
  </g>
</svg>
